<?xml version="1.0" standalone="no"?>
<!DOCTYPE svg PUBLIC "-//W3C//DTD SVG 20010904//EN"
 "http://www.w3.org/TR/2001/REC-SVG-20010904/DTD/svg10.dtd">
<svg version="1.0" xmlns="http://www.w3.org/2000/svg"
 width="813.000000pt" height="445.000000pt" viewBox="0 0 813.000000 445.000000"
 preserveAspectRatio="xMidYMid meet">

<g transform="translate(0.000000,445.000000) scale(0.100000,-0.100000)"
fill="#000000" stroke="none">
<path d="M2350 4283 c-500 -33 -1046 -198 -1447 -437 -464 -277 -853 -724
-853 -981 0 -90 47 -125 173 -125 44 0 57 3 57 15 0 12 -13 15 -55 15 -67 0
-121 20 -130 50 -15 47 26 182 86 280 55 93 159 220 259 320 441 441 1054 722
1790 821 126 17 510 18 625 1 287 -41 541 -158 654 -301 22 -28 52 -77 68
-108 26 -54 28 -66 28 -189 l0 -131 -39 -76 c-60 -119 -279 -330 -519 -500
-157 -112 -501 -317 -511 -306 -5 6 -16 366 -17 558 0 112 3 177 10 184 24 24
-1 162 -29 162 -9 0 -20 -19 -29 -50 -11 -40 -14 -134 -12 -472 l2 -422 -62
-31 -61 -31 -152 22 c-226 34 -511 32 -733 -5 -400 -67 -670 -191 -634 -290
13 -35 57 -48 177 -54 205 -9 529 34 809 108 154 40 362 107 442 141 52 22 64
23 151 8 l65 -12 -6 -331 c-4 -182 -14 -403 -22 -491 -19 -213 -20 -415 -1
-441 21 -28 23 -19 35 251 6 132 20 359 31 505 11 146 23 313 26 373 7 126 0
122 131 76 413 -144 682 -383 872 -774 146 -299 184 -476 219 -1013 7 -105 13
-136 27 -152 27 -30 45 -9 45 54 0 93 -29 370 -55 525 -64 378 -211 708 -430
965 -161 188 -398 342 -680 441 l-120 43 -3 51 c-2 33 1 51 8 51 7 0 85 39
173 86 282 151 470 277 663 446 149 131 216 210 263 308 31 66 36 86 39 171 5
113 -9 187 -49 268 -151 303 -642 465 -1279 424z m107 -1780 c-3 -3 -16 -2
-28 2 l-22 7 24 14 c20 11 25 10 27 -2 2 -9 1 -18 -1 -21z m-262 -11 c29 -8
27 -10 -50 -39 -435 -168 -924 -246 -1203 -192 -50 10 -53 12 -38 28 27 30
164 88 293 125 136 39 306 71 458 85 115 11 495 6 540 -7z"/>
<path d="M5170 3833 c-380 -15 -769 -83 -1029 -180 -127 -47 -253 -106 -269
-126 -20 -24 -11 -50 23 -59 37 -11 220 -2 246 13 40 21 6 28 -106 22 -63 -3
-115 -3 -115 0 0 26 268 123 487 177 282 69 515 95 853 95 240 -1 292 -4 407
-23 390 -68 687 -215 792 -392 22 -39 26 -56 26 -125 0 -104 -30 -171 -117
-261 -72 -76 -154 -132 -287 -199 -92 -46 -292 -128 -297 -122 -9 8 -45 489
-41 533 6 58 -3 80 -29 70 -16 -6 -17 -22 -10 -209 3 -111 8 -224 11 -252 3
-27 7 -73 10 -102 4 -43 2 -54 -12 -61 -31 -16 -185 -50 -258 -56 -38 -4 -88
-9 -110 -12 -61 -8 -68 11 -75 192 -4 131 -8 155 -24 173 -39 43 -112 14 -164
-64 -25 -38 -31 -43 -42 -30 -7 8 -25 15 -40 15 -29 0 -70 -38 -106 -99 -10
-17 -22 -31 -26 -31 -4 0 -8 31 -8 69 0 50 -4 72 -16 82 -23 19 -42 3 -93 -77
-41 -66 -43 -67 -38 -32 9 58 43 129 60 122 8 -3 18 -1 21 5 10 16 -12 51 -33
51 -35 0 -59 -42 -122 -209 -9 -23 -23 -38 -48 -48 -20 -8 -67 -35 -104 -60
-37 -25 -71 -42 -75 -39 -3 4 -7 100 -7 214 0 207 0 210 -33 204 -4 -1 -32
-52 -62 -113 -48 -97 -55 -108 -63 -86 -4 13 -19 30 -32 37 -55 29 -129 -38
-197 -179 -37 -75 -47 -87 -100 -122 -117 -75 -183 -83 -209 -25 -10 21 -6 31
43 90 64 77 104 146 113 198 6 29 3 40 -14 57 -76 76 -212 -66 -228 -237 -6
-64 -7 -65 -62 -108 -68 -54 -104 -57 -109 -8 -2 18 4 71 12 120 14 80 14 89
0 105 -9 11 -13 26 -9 38 3 11 -1 35 -9 54 -17 41 -57 55 -111 37 -118 -39
-285 -378 -219 -444 39 -40 108 -4 222 118 l53 56 -6 -53 c-16 -127 76 -178
181 -102 69 50 67 49 107 11 65 -61 139 -55 249 21 l37 25 32 -26 c18 -15 38
-25 46 -22 8 4 21 6 28 6 40 0 155 139 230 278 15 28 31 52 35 52 4 0 8 -65 9
-144 l2 -145 -34 -48 c-78 -109 -135 -261 -166 -444 -22 -130 -29 -267 -16
-310 22 -71 76 -79 128 -18 80 93 138 341 153 649 8 160 9 162 126 250 74 56
82 60 98 45 29 -26 60 -18 102 27 21 23 38 45 38 50 0 21 18 5 26 -24 13 -44
52 -58 89 -34 14 10 40 37 58 62 17 24 33 42 35 40 2 -3 7 -29 11 -58 5 -47 9
-53 30 -53 20 0 26 8 38 50 20 72 61 150 96 185 17 16 34 30 39 30 4 0 8 -65
8 -144 l0 -143 40 -59 c22 -32 48 -62 59 -66 11 -4 54 -1 94 7 82 16 288 28
323 19 24 -6 26 -16 40 -266 l6 -107 -39 -6 c-148 -26 -383 -85 -521 -131
-433 -144 -744 -319 -940 -529 -335 -358 -302 -707 90 -968 156 -104 344 -179
593 -236 854 -197 1757 -59 2207 337 177 156 284 325 335 528 24 98 24 335 0
424 -77 280 -345 588 -664 763 -93 51 -250 117 -362 153 -135 43 -471 104
-572 104 -82 0 -71 12 58 64 215 87 366 177 469 282 156 158 188 368 79 516
-84 114 -281 233 -490 297 -229 70 -581 114 -835 104z m-1772 -1057 c7 -60
-25 -120 -112 -206 -45 -45 -91 -87 -101 -92 -16 -10 -17 -7 -11 28 18 93 103
238 166 280 41 29 54 27 58 -10z m396 12 c-11 -36 -89 -143 -92 -127 -4 22 23
82 54 118 30 36 48 41 38 9z m410 -24 c-4 -16 -2 -29 5 -34 14 -8 -99 -164
-137 -188 -23 -15 -23 -15 -16 14 4 16 13 36 20 45 8 8 14 23 14 31 0 21 44
99 75 132 31 34 47 34 39 0z m1926 -300 c237 -38 334 -63 499 -126 200 -77
358 -176 500 -313 112 -108 176 -191 236 -306 67 -130 89 -219 89 -369 1 -268
-90 -470 -305 -675 -227 -217 -557 -359 -986 -425 -321 -49 -676 -47 -1011 6
-448 69 -705 176 -904 374 -91 90 -134 171 -150 279 -30 202 120 453 396 664
185 141 497 299 783 396 131 45 420 121 458 121 l25 0 0 -227 c0 -284 -19
-502 -65 -750 -40 -217 -41 -229 -20 -237 14 -5 45 2 45 10 0 2 6 50 14 106
45 321 76 703 76 930 0 97 4 179 9 182 4 3 71 15 147 27 77 12 141 23 143 25
19 18 -96 13 -260 -13 l-36 -5 -7 147 c-5 81 -10 163 -12 182 l-4 35 97 -7
c54 -4 163 -18 243 -31z m-1796 -191 c-21 -246 -94 -543 -133 -543 -24 0 -2
219 36 370 19 76 81 230 93 230 5 0 6 -26 4 -57z"/>
<path d="M7265 3486 c-19 -29 -31 -110 -40 -286 -8 -143 -14 -161 -86 -243
-61 -69 -268 -222 -282 -208 -5 5 7 33 32 72 50 76 53 122 10 127 -27 3 -70
-26 -199 -136 -77 -65 -132 -94 -173 -90 -51 5 -46 31 14 68 76 46 147 123
155 167 6 31 3 39 -16 55 -28 23 -42 23 -88 -1 -51 -26 -113 -95 -141 -156
-34 -76 -35 -77 -59 -86 -16 -6 -22 -5 -22 6 0 25 -29 17 -36 -9 -9 -37 3 -48
47 -44 31 3 40 0 45 -14 10 -34 54 -58 106 -58 58 0 123 30 190 89 51 45 62
50 53 22 -7 -23 11 -71 27 -71 6 0 22 -9 34 -21 18 -16 28 -19 55 -12 19 5 39
20 48 35 9 15 50 53 92 86 42 33 102 86 133 118 l56 58 0 -91 c0 -84 -2 -92
-23 -106 -65 -42 -56 -127 21 -209 35 -38 51 -48 71 -46 29 3 28 -3 15 141 -7
76 -6 77 17 77 107 1 318 23 378 39 81 21 105 38 95 65 -6 16 -15 17 -73 12
-36 -3 -131 -11 -211 -16 -80 -5 -159 -12 -176 -16 -40 -8 -44 5 -44 161 0 87
6 140 20 195 26 98 36 286 18 320 -18 34 -43 36 -63 6z m-635 -536 c0 -13 -59
-79 -81 -91 -34 -18 -21 10 27 56 48 47 54 51 54 35z m600 -295 c0 -8 -2 -15
-4 -15 -2 0 -6 7 -10 15 -3 8 -1 15 4 15 6 0 10 -7 10 -15z"/>
</g>
</svg>
